{"accessors":[{"bufferView":0,"componentType":5126,"count":36,"min":[-0.5,0.0,-0.5],"max":[0.5,1.0,0.5],"type":"VEC3","name":"SampleMyBox_vertices#0_POSITION"},{"bufferView":0,"byteOffset":12,"componentType":5120,"count":36,"type":"VEC4","name":"SampleMyBox_vertices#0_TANGENT"},{"bufferView":0,"byteOffset":16,"componentType":5120,"count":36,"type":"VEC4","name":"SampleMyBox_vertices#0_NORMAL"},{"bufferView":0,"byteOffset":20,"componentType":5122,"count":36,"type":"VEC2","name":"SampleMyBox_vertices#0_TEXCOORD_0"},{"bufferView":0,"byteOffset":24,"componentType":5122,"count":36,"type":"VEC2","name":"SampleMyBox_vertices#0_TEXCOORD_1"},{"bufferView":0,"byteOffset":28,"componentType":5123,"count":36,"type":"VEC4","name":"SampleMyBox_vertices#0_COLOR_0"},{"bufferView":1,"componentType":5123,"count":36,"type":"SCALAR","name":"SampleMyBox_indices#0"}],"asset":{"generator":"babylon.jsglTFexporterfor3dsmax2019v1.5.0","version":"2.0","extensions":{"ASOBO_asset_optimized":{"BoundingBoxMax":[0.5,1.0,0.5],"BoundingBoxMin":[-0.5,0.0,-0.5],"MajorVersion":4,"MinorVersion":4,"UseCheckerboardMaterialForMissingTextures":true,"UseOnlyFilenameForImageURI":true},"ASOBO_normal_map_convention":{"tangent_space_convention":"DirectX"}}},"bufferViews":[{"buffer":0,"byteLength":1296,"byteStride":36,"target":34962,"name":"BufferViewVertexND"},{"buffer":0,"byteLength":72,"byteOffset":1296,"target":34963,"name":"BufferViewIndex"}],"extensionsRequired":["MSFT_texture_dds"],"materials":[{"name":"02-Default","pbrMetallicRoughness":{"baseColorTexture":{"index":0}}}],"meshes":[{"primitives":[{"attributes":{"COLOR_0":5,"NORMAL":2,"POSITION":0,"TANGENT":1,"TEXCOORD_0":3,"TEXCOORD_1":4},"indices":6,"material":0,"mode":4,"extras":{"ASOBO_primitive":{"PrimitiveCount":12,"VertexType":"VTX","VertexVersion":2}}}],"name":"SampleMyBox"}],"nodes":[{"translation":[0.0,0.0,0.0],"rotation":[0.0,0.0,0.0,1.0],"scale":[1.0,1.0,1.0],"mesh":0,"name":"SampleMyBox"},{"translation":[0.0,0.0,0.0],"rotation":[0.0,0.0,0.0,1.0],"scale":[1.0,1.0,1.0],"name":"Defaultlight"}],"scene":0,"scenes":[{"nodes":[0,1]}],"textures":[{"extensions":{"MSFT_texture_dds":{"source":0}}}],"extensionsUsed":["ASOBO_normal_map_convention","MSFT_texture_dds","ASOBO_asset_optimized"],"buffers":[{"byteLength":1368,"uri":"SampleMyBox.bin"}],"images":[{"uri":"TEST_CHECKER.PNG.DDS","extras":"ASOBO_image_converted_meta"}]}
